<svg width="24" height="24" viewBox="0 0 24 24" fill="none" xmlns="http://www.w3.org/2000/svg">
<path d="M17.0458 5.93106C16.4238 5.93106 15.9223 6.43263 15.9223 7.05457C15.9223 7.67652 16.4238 8.17808 17.0458 8.17808C17.6677 8.17808 18.1693 7.67652 18.1693 7.05457C18.1693 6.43263 17.6677 5.93106 17.0458 5.93106ZM12.0301 7.37557C9.42197 7.37557 7.29532 9.50222 7.29532 12.1104C7.29532 14.7185 9.42197 16.8452 12.0301 16.8452C14.6383 16.8452 16.7649 14.7185 16.7649 12.1104C16.7649 9.50222 14.6383 7.37557 12.0301 7.37557ZM12.0301 15.1599C10.3449 15.1599 9.00065 13.7956 9.00065 12.1304C9.00065 10.4452 10.3649 9.10097 12.0301 9.10097C13.7154 9.10097 15.0596 10.4652 15.0596 12.1304C15.0596 13.7956 13.6953 15.1599 12.0301 15.1599ZM21.6 8.17808C21.6 4.98811 19.0119 2.40002 15.822 2.40002H8.17808C4.98811 2.40002 2.40002 4.98811 2.40002 8.17808V15.822C2.40002 19.0119 4.98811 21.6 8.17808 21.6H15.8019C18.9919 21.6 21.58 19.0119 21.58 15.822V8.17808H21.6ZM19.7743 15.8019C19.7743 17.9887 17.9887 19.7743 15.8019 19.7743H8.17808C5.99125 19.7743 4.20567 17.9887 4.20567 15.8019V8.17808C4.20567 5.97119 5.97118 4.20567 8.17808 4.20567H15.8019C17.9887 4.20567 19.7743 5.99125 19.7743 8.17808V15.8019Z" fill="#666666"/>
</svg>
