<svg width="24" height="24" viewBox="0 0 24 24" fill="none" xmlns="http://www.w3.org/2000/svg">
<path d="M20.5932 10.6311V7.27962C19.0237 7.27962 17.8259 6.86069 17.053 6.04643C16.2597 5.11714 15.8152 3.9403 15.7962 2.71859V2.47667L12.6277 2.39996V16.0123C12.519 16.6062 12.2307 17.1524 11.8017 17.5773C11.3727 18.0022 10.8237 18.2852 10.2288 18.3882C9.63382 18.4911 9.02162 18.4091 8.47479 18.1531C7.92797 17.8971 7.47286 17.4795 7.1709 16.9566C6.86893 16.4338 6.73466 15.8309 6.7862 15.2293C6.83774 14.6277 7.07262 14.0565 7.45912 13.5926C7.84563 13.1288 8.36515 12.7947 8.94754 12.6354C9.52994 12.4762 10.1472 12.4994 10.7159 12.7021V9.45688C10.3843 9.40254 10.0489 9.37492 9.71285 9.37427C8.50385 9.37427 7.32199 9.73278 6.31674 10.4045C5.31149 11.0762 4.52799 12.0309 4.06532 13.1478C3.60265 14.2648 3.4816 15.4939 3.71747 16.6797C3.95333 17.8654 4.53552 18.9547 5.39042 19.8096C6.24532 20.6644 7.33452 21.2466 8.5203 21.4825C9.70607 21.7184 10.9352 21.5973 12.0521 21.1346C13.1691 20.672 14.1238 19.8885 14.7955 18.8832C15.4672 17.878 15.8257 16.6961 15.8257 15.4871C15.825 15.2366 15.8093 14.9864 15.7785 14.7378V9.33887C17.2193 10.2387 18.8956 10.6885 20.5932 10.6311V10.6311Z" fill="#666666"/>
</svg>
