<svg width="24" height="24" viewBox="0 0 24 24" fill="none" xmlns="http://www.w3.org/2000/svg">
<path d="M21.5955 9.55464C21.6386 8.30625 21.3656 7.0672 20.8018 5.95255C20.4193 5.49518 19.8884 5.18652 19.3017 5.08037C16.8748 4.86017 14.438 4.76991 12.0015 4.80999C9.57396 4.76809 7.14587 4.85544 4.72758 5.07165C4.24947 5.15862 3.80701 5.38288 3.4542 5.71706C2.66924 6.44097 2.58203 7.67946 2.49481 8.72607C2.36827 10.6078 2.36827 12.496 2.49481 14.3778C2.52004 14.9668 2.60775 15.5516 2.75646 16.1221C2.86162 16.5626 3.07439 16.9702 3.37571 17.3083C3.73092 17.6602 4.18368 17.8972 4.67525 17.9886C6.55559 18.2207 8.45022 18.3169 10.3444 18.2764C13.397 18.32 16.0746 18.2764 19.2406 18.0322C19.7442 17.9464 20.2098 17.7091 20.575 17.3519C20.8192 17.1076 21.0016 16.8086 21.1071 16.4797C21.419 15.5226 21.5722 14.5209 21.5606 13.5143C21.5955 13.0259 21.5955 10.0779 21.5955 9.55464ZM10.0304 14.0376V8.63885L15.1937 11.3513C13.7459 12.1537 11.8358 13.0608 10.0304 14.0376Z" fill="black" fill-opacity="0.6"/>
</svg>
