<svg width="24" height="24" viewBox="0 0 24 24" fill="none" xmlns="http://www.w3.org/2000/svg">
<path fill-rule="evenodd" clip-rule="evenodd" d="M12.4923 10.4824V10.0332H13.839V16.355H13.0675C12.9153 16.355 12.7693 16.2947 12.6614 16.1875C12.5535 16.0802 12.4924 15.9345 12.4915 15.7824C12.0021 16.1398 11.4233 16.3548 10.8193 16.4035C10.2152 16.4522 9.60948 16.3327 9.06918 16.0583C8.52887 15.7838 8.07509 15.3652 7.75812 14.8486C7.44115 14.3321 7.27337 13.738 7.27337 13.132C7.27337 12.5259 7.44115 11.9318 7.75812 11.4153C8.07509 10.8987 8.52887 10.4801 9.06918 10.2056C9.60948 9.93121 10.2152 9.81172 10.8193 9.86041C11.4233 9.90911 12.0021 10.1241 12.4915 10.4815L12.4923 10.4824ZM6.92149 8V8.20487C6.94244 8.58281 6.83721 8.957 6.62234 9.26863L6.59233 9.30292C6.53833 9.36463 6.41061 9.50864 6.34975 9.5875L2.02527 15.0118H6.92149V15.7832C6.92127 15.9361 6.86039 16.0826 6.75222 16.1906C6.64406 16.2986 6.49746 16.3592 6.34461 16.3592H0.00231475V15.9932C-0.0157605 15.6902 0.0724565 15.3904 0.251755 15.1455L4.86083 9.44007H0.194324V8H6.92149ZM15.4727 16.355C15.3455 16.3547 15.2235 16.3041 15.1336 16.2141C15.0436 16.1241 14.9929 16.0022 14.9927 15.8749V8H16.4345V16.355H15.4727ZM20.6964 9.81037C21.3501 9.81071 21.989 10.0049 22.5324 10.3683C23.0757 10.7317 23.4991 11.2481 23.749 11.8522C23.9989 12.4562 24.064 13.1208 23.9362 13.7619C23.8084 14.4029 23.4934 14.9917 23.031 15.4538C22.5686 15.9158 21.9796 16.2304 21.3384 16.3577C20.6972 16.485 20.0327 16.4193 19.4288 16.169C18.825 15.9186 18.3089 15.4948 17.9459 14.9512C17.5829 14.4076 17.3892 13.7685 17.3894 13.1148C17.3899 12.2381 17.7385 11.3975 18.3587 10.7778C18.9788 10.1581 19.8197 9.81014 20.6964 9.81037ZM10.5551 15.0632C10.9369 15.0634 11.3102 14.9503 11.6277 14.7383C11.9452 14.5264 12.1928 14.225 12.3391 13.8723C12.4853 13.5197 12.5237 13.1315 12.4494 12.7571C12.3751 12.3826 12.1914 12.0385 11.9215 11.7684C11.6517 11.4983 11.3078 11.3143 10.9334 11.2397C10.559 11.165 10.1708 11.2031 9.81802 11.349C9.46522 11.495 9.16363 11.7423 8.95138 12.0596C8.73912 12.377 8.62574 12.7502 8.62557 13.132C8.62557 13.6438 8.8288 14.1348 9.19061 14.4969C9.55242 14.8591 10.0432 15.0627 10.5551 15.0632ZM20.6964 15.0632C21.0811 15.0632 21.4571 14.9491 21.7769 14.7355C22.0967 14.5218 22.346 14.2181 22.4932 13.8627C22.6405 13.5074 22.679 13.1164 22.6041 12.7391C22.5291 12.3619 22.3439 12.0153 22.072 11.7433C21.8001 11.4712 21.4536 11.2859 21.0764 11.2108C20.6992 11.1356 20.3081 11.174 19.9527 11.3211C19.5973 11.4682 19.2935 11.7173 19.0797 12.0371C18.8659 12.3568 18.7516 12.7327 18.7515 13.1174C18.7521 13.6328 18.9573 14.127 19.322 14.4913C19.6866 14.8556 20.181 15.0604 20.6964 15.0606V15.0632Z" fill="black" fill-opacity="0.6"/>
</svg>
